<?xml version="1.0" standalone="no"?>
<!DOCTYPE svg PUBLIC "-//W3C//DTD SVG 20010904//EN"
 "http://www.w3.org/TR/2001/REC-SVG-20010904/DTD/svg10.dtd">
<svg version="1.0" xmlns="http://www.w3.org/2000/svg"
 width="469.000000pt" height="482.000000pt" viewBox="0 0 469.000000 482.000000"
 preserveAspectRatio="xMidYMid meet">
<metadata>
Created by potrace 1.13, written by Peter Selinger 2001-2015
</metadata>
<g transform="translate(0.000000,482.000000) scale(0.100000,-0.100000)"
fill="#000000" stroke="none">
<path d="M0 4217 l0 -603 685 -394 c376 -217 684 -398 685 -401 0 -7 -332
-189 -347 -189 -6 0 -229 130 -496 289 -267 160 -495 295 -507 301 l-20 11 0
-1616 0 -1615 2345 0 2345 0 0 208 0 207 -787 473 c-434 260 -794 476 -802
481 -12 8 -3 42 57 203 l72 193 -2 460 -3 460 -565 262 c-563 261 -564 261
-595 246 -16 -9 -119 -65 -228 -125 -109 -60 -200 -108 -202 -106 -4 4 -34
981 -30 986 1 1 429 -190 951 -424 522 -234 955 -428 961 -431 10 -4 13 -155
15 -690 l3 -685 570 -299 c314 -164 573 -299 578 -299 4 0 7 833 7 1850 l0
1850 -2345 0 -2345 0 0 -603z m3146 -2632 c-38 -104 -71 -192 -72 -194 -2 -2
-103 58 -226 132 -136 83 -222 141 -220 149 2 7 133 231 290 497 l287 484 5
-439 5 -439 -69 -190z"/>
</g>
</svg>
